<svg xmlns="http://www.w3.org/2000/svg" width="1200" height="760" viewBox="0 0 1200 760" role="img" aria-labelledby="title desc">
  <title id="title">Devkit project preview</title>
  <desc id="desc">A light developer studio interface with command cards and status panels.</desc>
  <rect width="1200" height="760" fill="#f6f6f1"/>
  <rect x="70" y="70" width="1060" height="620" fill="#ffffff" stroke="#0e0e0c" stroke-width="3"/>
  <rect x="70" y="70" width="1060" height="72" fill="#0e0e0c"/>
  <circle cx="112" cy="106" r="10" fill="#ff5d4d"/>
  <circle cx="146" cy="106" r="10" fill="#f0c84b"/>
  <circle cx="180" cy="106" r="10" fill="#35a169"/>
  <text x="226" y="113" fill="#ffffff" font-family="monospace" font-size="22" font-weight="700">devkit.studio / build utilities</text>
  <rect x="116" y="194" width="414" height="118" fill="#214cff"/>
  <text x="146" y="246" fill="#ffffff" font-family="monospace" font-size="24" font-weight="700">Generate</text>
  <text x="146" y="282" fill="#dfe5ff" font-family="monospace" font-size="18">component scaffolds</text>
  <rect x="116" y="340" width="414" height="118" fill="#f6f6f1" stroke="#d9d9ce" stroke-width="2"/>
  <text x="146" y="392" fill="#0e0e0c" font-family="monospace" font-size="24" font-weight="700">Inspect</text>
  <text x="146" y="428" fill="#66665f" font-family="monospace" font-size="18">tokens, routes, states</text>
  <rect x="116" y="486" width="414" height="118" fill="#0e0e0c"/>
  <text x="146" y="538" fill="#ffffff" font-family="monospace" font-size="24" font-weight="700">Ship</text>
  <text x="146" y="574" fill="#b9b9ae" font-family="monospace" font-size="18">repeatable workflows</text>
  <rect x="588" y="194" width="496" height="410" fill="#f6f6f1" stroke="#d9d9ce" stroke-width="2"/>
  <path d="M640 272h392M640 334h280M640 396h342M640 458h230M640 520h312" stroke="#0e0e0c" stroke-width="16" stroke-linecap="square"/>
  <path d="M646 262h392M646 324h280M646 386h342M646 448h230M646 510h312" stroke="#214cff" stroke-width="4" stroke-linecap="square"/>
</svg>
