<svg id="New_Layer" data-name="New Layer" xmlns="http://www.w3.org/2000/svg" viewBox="0 0 719.89 564.61"><path d="M441.72,297.43,407.29,367.8l1.77,1.9c.92,1.06,17,17.44,35.66,36.42s41.95,42.7,51.68,52.58,52.16,53.14,94.3,96.05c67.65,68.89,76.76,77.92,78.29,77.71.91-.14,16.88-2.12,35.35-4.52s36.94-4.87,41-5.64q79.91-15.36,113.39-92.18c10.16-23.43,16.88-50.25,22.51-89.49,1.53-10.94,1.53-40.3,0-51.87-5.2-38.82-19.94-71.92-44.77-100.57C812,260,779.32,238.5,746.29,229L741,227.56l-132.47-.21-132.41-.21Zm275.95,88.86a31.74,31.74,0,0,1,7.77,3.24c4.83,3,11.31,10.87,13.88,16.87,4.71,11.15,6.06,24.77,3.3,33.88-3.91,13-13.7,24.49-25.13,29.64-9.85,4.31-7.71,4.24-93.94,4.24-43.18,0-78.53-.29-78.53-.57,0-.63,29.78-86.74,30.39-87.87.13-.28,31.26-.49,69.17-.49C702.07,385.23,714.18,385.44,717.67,386.29Z" transform="translate(-162.46 -227.14)" fill="#35a169" fill-rule="evenodd"/><path d="M167.72,286.21c2.88,3.46,14.87,17.79,26.55,32s24.28,29.22,27.82,33.53,16.52,19.83,28.75,34.58S279,420.24,286.31,429s19.76,23.78,27.83,33.52,16.76,20.19,19.39,23.29l4.77,5.65-7.83,14.82c-4.34,8.19-12.42,23.36-18,33.87C295.85,571.62,244.85,667.68,202,748.63c-11.19,21.1-20.91,39.45-21.59,40.72l-1.22,2.4h196.2l37.86-77.49C434,671.7,451.5,636,452.12,634.86l1-1.91,29.61,35.43c16.26,19.55,46.11,55.26,66.23,79.4l36.64,44H687.4c94.3,0,101.7-.07,101-1.13-1.41-2-140.18-146.8-230.51-240.59C486.79,476.27,442.57,430.82,419,407.46c-7.89-7.9-19.76-19.76-26.3-26.47-14.25-14.6-25.32-24.84-35-32.67-44.22-35.57-98.59-56-177.31-66.48-7.21-1-14.18-1.77-15.53-1.77h-2.45Z" transform="translate(-162.46 -227.14)" fill="#38a169" fill-rule="evenodd"/></svg>