<svg xmlns="http://www.w3.org/2000/svg" width="1200" height="760" viewBox="0 0 1200 760" role="img" aria-labelledby="title desc">
  <title id="title">Synaptic project preview</title>
  <desc id="desc">A systems diagram with connected automation nodes and Python process labels.</desc>
  <rect width="1200" height="760" fill="#f6f6f1"/>
  <rect x="74" y="74" width="1052" height="612" fill="#10100e"/>
  <g fill="none" stroke="#d9d9ce" stroke-width="2" opacity="0.24">
    <path d="M74 202h1052M74 330h1052M74 458h1052M74 586h1052"/>
    <path d="M250 74v612M426 74v612M602 74v612M778 74v612M954 74v612"/>
  </g>
  <g stroke="#214cff" stroke-width="5" fill="none">
    <path d="M260 372 C382 236 492 238 606 372 S834 514 944 372"/>
    <path d="M260 372 C398 496 488 506 602 372 S816 230 944 372" opacity="0.72"/>
  </g>
  <g font-family="monospace" font-weight="700">
    <circle cx="260" cy="372" r="48" fill="#ffffff"/>
    <text x="225" y="380" fill="#0e0e0c" font-size="18">input</text>
    <circle cx="602" cy="372" r="70" fill="#214cff"/>
    <text x="555" y="381" fill="#ffffff" font-size="22">agent</text>
    <circle cx="944" cy="372" r="48" fill="#ffffff"/>
    <text x="904" y="380" fill="#0e0e0c" font-size="18">output</text>
  </g>
  <rect x="142" y="136" width="358" height="82" fill="#ffffff"/>
  <text x="172" y="186" fill="#0e0e0c" font-family="monospace" font-size="24" font-weight="700">synaptic.py</text>
  <rect x="700" y="542" width="358" height="82" fill="#ffffff"/>
  <text x="730" y="592" fill="#0e0e0c" font-family="monospace" font-size="24" font-weight="700">automation graph</text>
</svg>
